<?xml version="1.0" encoding="UTF-8"?>
<svg id="a" xmlns="http://www.w3.org/2000/svg" xmlns:xlink="http://www.w3.org/1999/xlink" viewBox="0 0 1034 1034">
    <defs>
        <style>
            .a{clip-path:url(#b);}
        </style>
        <clipPath id="b">
            <path d="M1028.55695,444.37366l-121.03223,209.63428c-.28418,.49121-.58887,.96191-.91504,1.41113-34.52637,58.94336-89.81836,101.10742-155.86426,118.80469-22.22949,5.95605-44.7998,8.90332-67.21289,8.9043-44.71973,.00195-88.8457-11.72559-128.6123-34.68457-48.021-27.72485-85.03174-69.16516-106.96362-118.97003-3.27472,8.37189-7.19885,16.55371-11.77954,24.48761-18.28857,31.67578-45.40869,56.58398-78.42871,72.03027-23.8252,11.14551-49.46729,16.83008-75.36719,16.83008-9.16357,0-18.35596-.71094-27.51709-2.14355-8.73047-1.36523-14.70068-9.54883-13.33594-18.2793s9.54834-14.70215,18.27979-13.33594c59.03662,9.23047,118.77344-19.34277,148.65625-71.10156,14.58185-25.25568,21.15918-53.53772,19.22186-82.30603-6.72522-55.1579,4.50073-110.76062,32.77618-159.73499,34.46582-59.69678,90.11621-102.39844,156.69922-120.23926,66.34082-17.77734,135.62109-8.75391,195.17383,25.40625,.24609,.12598,.49023,.2583,.73145,.39746l209.63379,121.03271c2.81726,1.62665,4.94611,3.98383,6.2995,6.6911V5H5V697.25372c.28931-.73602,.61682-1.46399,1.02423-2.16962L305.12042,177.03479c39.64844-68.67188,127.71289-92.34326,196.43799-52.86523,.09521,.05225,.18945,.10547,.2832,.15967,30.24854,17.46436,66.1626,19.87891,98.52979,6.62305,8.17871-3.34766,17.52148,.56592,20.87012,8.74316,3.34863,8.17773-.56543,17.52148-8.74316,20.87012-41.50586,16.99609-87.54785,13.94385-126.37939-8.36377-.09619-.05322-.19238-.10693-.2876-.16211-53.48486-30.88086-122.11963-12.48926-152.99805,40.99512L41.73712,697.22766l345.19873,199.30176,350.78809-.43164h.01953c8.82812,0,15.98926,7.15039,16,15.98047,.01074,8.83594-7.14355,16.00879-15.98047,16.01953l-355.08545,.43652h-.01953c-2.80859,0-5.56738-.73926-8-2.14355L11.88068,716.94055c-3.26398-1.88428-5.60291-4.7489-6.88068-8.00421v320.06366H1029V443.50812c-.14465,.28943-.27911,.5816-.44305,.86554Zm-802.14178,88.90527c17.70557-30.66681,56.91907-41.17407,87.58588-23.46857,30.66687,17.70557,41.17407,56.91907,23.46857,87.58588-17.70551,30.66687-56.91907,41.17407-87.58588,23.46857s-41.17407-56.91907-23.46857-87.58588Z"/>
        </clipPath>
    </defs>
    <g class="a">
        <image transform="translate(-.28 -.28) scale(.48)" xlink:href="spakusBg.png"/>
    </g>
</svg>