<?xml version="1.0" encoding="UTF-8"?>
<svg id="a" xmlns="http://www.w3.org/2000/svg"
    xmlns:xlink="http://www.w3.org/1999/xlink" viewBox="0 0 1034 1034">
    <defs>
        <style>
            .a {
                clip-path: url(#b);
            }
        </style>
        <clipPath id="b">
            <circle cx="280.28781" cy="566.26524" r="64.1173" />
            <path
                d="M1021.0459,423.44482l-209.63379-121.03271c-.24121-.13916-.48535-.27148-.73145-.39746-59.55273-34.16016-128.83301-43.18359-195.17383-25.40625-66.58301,17.84082-122.2334,60.54248-156.69922,120.23926-28.27545,48.97437-39.5014,104.57709-32.77618,159.73499,1.93732,28.76831-4.64001,57.05035-19.22186,82.30603-29.88281,51.75879-89.61963,80.33203-148.65625,71.10156-8.73145-1.36621-16.91504,4.60547-18.27979,13.33594s4.60547,16.91406,13.33594,18.2793c9.16113,1.43262,18.35352,2.14355,27.51709,2.14355,25.8999,0,51.54199-5.68457,75.36719-16.83008,33.02002-15.44629,60.14014-40.35449,78.42871-72.03027,4.58069-7.9339,8.50482-16.11572,11.77954-24.48761,21.93188,49.80487,58.94263,91.24518,106.96362,118.97003,39.7666,22.95898,83.89258,34.68652,128.6123,34.68457,22.41309-.00098,44.9834-2.94824,67.21289-8.9043,66.0459-17.69727,121.33789-59.86133,155.86426-118.80469,.32617-.44922,.63086-.91992,.91504-1.41113l121.03223-209.63428c4.41797-7.65283,1.7959-17.43799-5.85645-21.85645Z" />
            <path
                d="M381.00342,929.46191c-2.80859,0-5.56738-.73926-8-2.14355L10.22607,717.86816c-7.65283-4.41797-10.2749-14.2041-5.85645-21.85645L303.46582,177.9624c39.64844-68.67188,127.71289-92.34326,196.43799-52.86523,.09521,.05225,.18945,.10547,.2832,.15967,30.24854,17.46436,66.1626,19.87891,98.52979,6.62305,8.17871-3.34766,17.52148,.56592,20.87012,8.74316,3.34863,8.17773-.56543,17.52148-8.74316,20.87012-41.50586,16.99609-87.54785,13.94385-126.37939-8.36377-.09619-.05322-.19238-.10693-.2876-.16211-53.48486-30.88086-122.11963-12.48926-152.99805,40.99512L40.08252,698.15527l345.19873,199.30176,350.78809-.43164h.01953c8.82812,0,15.98926,7.15039,16,15.98047,.01074,8.83594-7.14355,16.00879-15.98047,16.01953l-355.08545,.43652h-.01953Z" />
        </clipPath>
    </defs>
        <g class="a">
            <image width="2155" height="2155" transform="translate(-.28 -.28) scale(.48)" xlink:href="spakusBg.png" />
        </g>
</svg>